[2026-03-15 11:53:59] [INFO] Jarvis Desktop launcher started.
[2026-03-15 11:53:59] [INFO] Runtime log path: C:\Jarvis\logs\runtime_2026-03-15_11-53-59.txt
[2026-03-15 11:53:59] [INFO] Launcher executable: C:\Users\anden\AppData\Local\Python\pythoncore-3.14-64\pythonw.exe
[2026-03-15 11:53:59] [INFO] Root directory: C:\Jarvis
[2026-03-15 11:53:59] [INFO] Target script: C:\Jarvis\jarvis_desktop_test.py
[2026-03-15 11:53:59] [INFO] Diagnostics script: C:\Jarvis\desktop\jarvis_diagnostics.pyw
[2026-03-15 11:53:59] [INFO] Recovery attempts allowed: 3
[2026-03-15 11:53:59] [INFO] Voice hook ready: C:\Jarvis\jarvis_voice.py
[2026-03-15 11:53:59] [INFO] Starting desktop renderer process. attempt=1
[2026-03-15 11:53:59] [INFO] Child executable: C:\Users\anden\AppData\Local\Python\pythoncore-3.14-64\pythonw.exe
[2026-03-15 11:54:00] [STDOUT] Jarvis Desktop Concept 1 - Version 1.02
[2026-03-15 11:54:00] [STDOUT] Hotkey: Ctrl + Alt + End
[2026-03-15 11:54:00] [STDERR] Traceback (most recent call last):
[2026-03-15 11:54:00] [STDERR]   File "C:\Jarvis\jarvis_desktop_test.py", line 44, in <module>
[2026-03-15 11:54:00] [STDERR]     raise SystemExit(main())
[2026-03-15 11:54:00] [STDERR]                      ~~~~^^
[2026-03-15 11:54:00] [STDERR]   File "C:\Jarvis\jarvis_desktop_test.py", line 36, in main
[2026-03-15 11:54:00] [STDERR]     raise RuntimeError("Jarvis test crash triggered intentionally")
[2026-03-15 11:54:00] [STDERR] RuntimeError: Jarvis test crash triggered intentionally
[2026-03-15 11:54:00] [INFO] Desktop renderer exited. exit_code=1
[2026-03-15 11:54:00] [WARN] Recovery attempt 1/3
[2026-03-15 11:54:01] [INFO] Starting desktop renderer process. attempt=2
[2026-03-15 11:54:01] [INFO] Child executable: C:\Users\anden\AppData\Local\Python\pythoncore-3.14-64\pythonw.exe
[2026-03-15 11:54:01] [STDOUT] Jarvis Desktop Concept 1 - Version 1.02
[2026-03-15 11:54:01] [STDOUT] Hotkey: Ctrl + Alt + End
[2026-03-15 11:54:01] [STDERR] Traceback (most recent call last):
[2026-03-15 11:54:01] [STDERR]   File "C:\Jarvis\jarvis_desktop_test.py", line 44, in <module>
[2026-03-15 11:54:01] [STDERR]     raise SystemExit(main())
[2026-03-15 11:54:01] [STDERR]                      ~~~~^^
[2026-03-15 11:54:01] [STDERR]   File "C:\Jarvis\jarvis_desktop_test.py", line 36, in main
[2026-03-15 11:54:01] [STDERR]     raise RuntimeError("Jarvis test crash triggered intentionally")
[2026-03-15 11:54:01] [STDERR] RuntimeError: Jarvis test crash triggered intentionally
[2026-03-15 11:54:01] [INFO] Desktop renderer exited. exit_code=1
[2026-03-15 11:54:01] [WARN] Recovery attempt 2/3
[2026-03-15 11:54:03] [INFO] Starting desktop renderer process. attempt=3
[2026-03-15 11:54:03] [INFO] Child executable: C:\Users\anden\AppData\Local\Python\pythoncore-3.14-64\pythonw.exe
[2026-03-15 11:54:03] [STDOUT] Jarvis Desktop Concept 1 - Version 1.02
[2026-03-15 11:54:03] [STDOUT] Hotkey: Ctrl + Alt + End
[2026-03-15 11:54:03] [STDERR] Traceback (most recent call last):
[2026-03-15 11:54:03] [STDERR]   File "C:\Jarvis\jarvis_desktop_test.py", line 44, in <module>
[2026-03-15 11:54:03] [STDERR]     raise SystemExit(main())
[2026-03-15 11:54:03] [STDERR]                      ~~~~^^
[2026-03-15 11:54:03] [STDERR]   File "C:\Jarvis\jarvis_desktop_test.py", line 36, in main
[2026-03-15 11:54:03] [STDERR]     raise RuntimeError("Jarvis test crash triggered intentionally")
[2026-03-15 11:54:03] [STDERR] RuntimeError: Jarvis test crash triggered intentionally
[2026-03-15 11:54:03] [INFO] Desktop renderer exited. exit_code=1
[2026-03-15 11:54:03] [ERROR] Crash log written: C:\Jarvis\logs\crash\crash_2026-03-15_11-54-03.txt
[2026-03-15 11:54:03] [INFO] Trying voice line 'Uhm..... Sir, I seem to be malfunctioning.' using voice --text --mode
[2026-03-15 11:54:10] [VOICE_STDOUT] ffmpeg version 2026-03-12-git-9dc44b43b2-essentials_build-www.gyan.dev Copyright (c) 2000-2026 the FFmpeg developers
[2026-03-15 11:54:10] [VOICE_STDOUT]   built with gcc 15.2.0 (Rev11, Built by MSYS2 project)
[2026-03-15 11:54:10] [VOICE_STDOUT]   configuration: --enable-gpl --enable-version3 --enable-static --disable-w32threads --disable-autodetect --enable-cairo --enable-fontconfig --enable-iconv --enable-gnutls --enable-libxml2 --enable-gmp --enable-bzlib --enable-lzma --enable-zlib --enable-libsrt --enable-libssh --enable-libzmq --enable-avisynth --enable-sdl2 --enable-libwebp --enable-libx264 --enable-libx265 --enable-libxvid --enable-libaom --enable-libopenjpeg --enable-libvpx --enable-mediafoundation --enable-libass --enable-libfreetype --enable-libfribidi --enable-libharfbuzz --enable-libvidstab --enable-libvmaf --enable-libzimg --enable-amf --enable-cuda-llvm --enable-cuvid --enable-dxva2 --enable-d3d11va --enable-d3d12va --enable-ffnvcodec --enable-libvpl --enable-nvdec --enable-nvenc --enable-vaapi --enable-openal --enable-libgme --enable-libopenmpt --enable-libopencore-amrwb --enable-libmp3lame --enable-libtheora --enable-libvo-amrwbenc --enable-libgsm --enable-libopencore-amrnb --enable-libopus --enable-libspeex --enable-libvorbis --enable-librubberband
[2026-03-15 11:54:10] [VOICE_STDOUT]   libavutil      60. 27.100 / 60. 27.100
[2026-03-15 11:54:10] [VOICE_STDOUT]   libavcodec     62. 29.100 / 62. 29.100
[2026-03-15 11:54:10] [VOICE_STDOUT]   libavformat    62. 13.100 / 62. 13.100
[2026-03-15 11:54:10] [VOICE_STDOUT]   libavdevice    62.  4.100 / 62.  4.100
[2026-03-15 11:54:10] [VOICE_STDOUT]   libavfilter    11. 15.101 / 11. 15.101
[2026-03-15 11:54:10] [VOICE_STDOUT]   libswscale      9.  6.100 /  9.  6.100
[2026-03-15 11:54:10] [VOICE_STDOUT]   libswresample   6.  4.100 /  6.  4.100
[2026-03-15 11:54:10] [VOICE_STDOUT] [in#0/mp3 @ 0000015c87b16a00] Estimating duration from bitrate, this may be inaccurate
[2026-03-15 11:54:10] [VOICE_STDOUT] Input #0, mp3, from 'C:\Users\anden\AppData\Local\Temp\tmpo7u76mkx.mp3':
[2026-03-15 11:54:10] [VOICE_STDOUT]   Duration: 00:00:05.14, start: 0.000000, bitrate: 48 kb/s
[2026-03-15 11:54:10] [VOICE_STDOUT]   Stream #0:0: Audio: mp3 (mp3float), 24000 Hz, mono, fltp, 48 kb/s
[2026-03-15 11:54:10] [VOICE_STDOUT] [Parsed_acrusher_2 @ 0000015c87b2e000] [Eval @ 0000001a7dbfcc30] Undefined constant or missing '(' in 't*1.7)'
[2026-03-15 11:54:10] [VOICE_STDOUT] [Parsed_acrusher_2 @ 0000015c87b2e000] Unable to parse "mix" option value "0.55+0.45*sin(2*PI*t*1.7)"
[2026-03-15 11:54:10] [VOICE_STDOUT] [fc#-1 @ 0000015c87b28a00] Error applying option 'mix' to filter 'acrusher': Invalid argument
[2026-03-15 11:54:10] [VOICE_STDOUT] Error opening output file C:\Users\anden\AppData\Local\Temp\tmp7jtldmb8.wav.
[2026-03-15 11:54:10] [VOICE_STDOUT] Error opening output files: Invalid argument
[2026-03-15 11:54:10] [VOICE_STDERR] [mp3 @ 000001A74CB0C3C0] Estimating duration from bitrate, this may be inaccurate
[2026-03-15 11:54:10] [VOICE_STDERR] Input #0, mp3, from 'C:/Users/anden/AppData/Local/Temp/tmpo7u76mkx.mp3':
[2026-03-15 11:54:10] [VOICE_STDERR]   Duration: 00:00:05.14, start: 0.000000, bitrate: 48 kb/s
[2026-03-15 11:54:10] [VOICE_STDERR]   Stream #0:0: Audio: mp3 (mp3float), 24000 Hz, mono, fltp, 48 kb/s
[2026-03-15 11:54:10] [INFO] Voice line completed: Uhm..... Sir, I seem to be malfunctioning.
[2026-03-15 11:54:10] [INFO] Failure voice step 1/3 success=True line=Uhm..... Sir, I seem to be malfunctioning.
[2026-03-15 11:54:11] [INFO] Trying voice line 'Attempting restart.' using voice --text --mode
[2026-03-15 11:54:15] [VOICE_STDOUT] ffmpeg version 2026-03-12-git-9dc44b43b2-essentials_build-www.gyan.dev Copyright (c) 2000-2026 the FFmpeg developers
[2026-03-15 11:54:15] [VOICE_STDOUT]   built with gcc 15.2.0 (Rev11, Built by MSYS2 project)
[2026-03-15 11:54:15] [VOICE_STDOUT]   configuration: --enable-gpl --enable-version3 --enable-static --disable-w32threads --disable-autodetect --enable-cairo --enable-fontconfig --enable-iconv --enable-gnutls --enable-libxml2 --enable-gmp --enable-bzlib --enable-lzma --enable-zlib --enable-libsrt --enable-libssh --enable-libzmq --enable-avisynth --enable-sdl2 --enable-libwebp --enable-libx264 --enable-libx265 --enable-libxvid --enable-libaom --enable-libopenjpeg --enable-libvpx --enable-mediafoundation --enable-libass --enable-libfreetype --enable-libfribidi --enable-libharfbuzz --enable-libvidstab --enable-libvmaf --enable-libzimg --enable-amf --enable-cuda-llvm --enable-cuvid --enable-dxva2 --enable-d3d11va --enable-d3d12va --enable-ffnvcodec --enable-libvpl --enable-nvdec --enable-nvenc --enable-vaapi --enable-openal --enable-libgme --enable-libopenmpt --enable-libopencore-amrwb --enable-libmp3lame --enable-libtheora --enable-libvo-amrwbenc --enable-libgsm --enable-libopencore-amrnb --enable-libopus --enable-libspeex --enable-libvorbis --enable-librubberband
[2026-03-15 11:54:15] [VOICE_STDOUT]   libavutil      60. 27.100 / 60. 27.100
[2026-03-15 11:54:15] [VOICE_STDOUT]   libavcodec     62. 29.100 / 62. 29.100
[2026-03-15 11:54:15] [VOICE_STDOUT]   libavformat    62. 13.100 / 62. 13.100
[2026-03-15 11:54:15] [VOICE_STDOUT]   libavdevice    62.  4.100 / 62.  4.100
[2026-03-15 11:54:15] [VOICE_STDOUT]   libavfilter    11. 15.101 / 11. 15.101
[2026-03-15 11:54:15] [VOICE_STDOUT]   libswscale      9.  6.100 /  9.  6.100
[2026-03-15 11:54:15] [VOICE_STDOUT]   libswresample   6.  4.100 /  6.  4.100
[2026-03-15 11:54:15] [VOICE_STDOUT] [in#0/mp3 @ 0000012a5c436a00] Estimating duration from bitrate, this may be inaccurate
[2026-03-15 11:54:15] [VOICE_STDOUT] Input #0, mp3, from 'C:\Users\anden\AppData\Local\Temp\tmp_80bmvq6.mp3':
[2026-03-15 11:54:15] [VOICE_STDOUT]   Duration: 00:00:02.66, start: 0.000000, bitrate: 48 kb/s
[2026-03-15 11:54:15] [VOICE_STDOUT]   Stream #0:0: Audio: mp3 (mp3float), 24000 Hz, mono, fltp, 48 kb/s
[2026-03-15 11:54:15] [VOICE_STDOUT] [Parsed_acrusher_2 @ 0000012a5c44df80] [Eval @ 0000000467dfcc80] Undefined constant or missing '(' in 't*1.7)'
[2026-03-15 11:54:15] [VOICE_STDOUT] [Parsed_acrusher_2 @ 0000012a5c44df80] Unable to parse "mix" option value "0.55+0.45*sin(2*PI*t*1.7)"
[2026-03-15 11:54:15] [VOICE_STDOUT] [fc#-1 @ 0000012a5c4489c0] Error applying option 'mix' to filter 'acrusher': Invalid argument
[2026-03-15 11:54:15] [VOICE_STDOUT] Error opening output file C:\Users\anden\AppData\Local\Temp\tmpiav72uqw.wav.
[2026-03-15 11:54:15] [VOICE_STDOUT] Error opening output files: Invalid argument
[2026-03-15 11:54:15] [VOICE_STDERR] [mp3 @ 0000019081B1DC00] Estimating duration from bitrate, this may be inaccurate
[2026-03-15 11:54:15] [VOICE_STDERR] Input #0, mp3, from 'C:/Users/anden/AppData/Local/Temp/tmp_80bmvq6.mp3':
[2026-03-15 11:54:15] [VOICE_STDERR]   Duration: 00:00:02.66, start: 0.000000, bitrate: 48 kb/s
[2026-03-15 11:54:15] [VOICE_STDERR]   Stream #0:0: Audio: mp3 (mp3float), 24000 Hz, mono, fltp, 48 kb/s
[2026-03-15 11:54:15] [INFO] Voice line completed: Attempting restart.
[2026-03-15 11:54:15] [INFO] Failure voice step 2/3 success=True line=Attempting restart.
[2026-03-15 11:54:16] [INFO] Trying voice line 'Restart failed.' using voice --text --mode
[2026-03-15 11:54:19] [VOICE_STDOUT] ffmpeg version 2026-03-12-git-9dc44b43b2-essentials_build-www.gyan.dev Copyright (c) 2000-2026 the FFmpeg developers
[2026-03-15 11:54:19] [VOICE_STDOUT]   built with gcc 15.2.0 (Rev11, Built by MSYS2 project)
[2026-03-15 11:54:19] [VOICE_STDOUT]   configuration: --enable-gpl --enable-version3 --enable-static --disable-w32threads --disable-autodetect --enable-cairo --enable-fontconfig --enable-iconv --enable-gnutls --enable-libxml2 --enable-gmp --enable-bzlib --enable-lzma --enable-zlib --enable-libsrt --enable-libssh --enable-libzmq --enable-avisynth --enable-sdl2 --enable-libwebp --enable-libx264 --enable-libx265 --enable-libxvid --enable-libaom --enable-libopenjpeg --enable-libvpx --enable-mediafoundation --enable-libass --enable-libfreetype --enable-libfribidi --enable-libharfbuzz --enable-libvidstab --enable-libvmaf --enable-libzimg --enable-amf --enable-cuda-llvm --enable-cuvid --enable-dxva2 --enable-d3d11va --enable-d3d12va --enable-ffnvcodec --enable-libvpl --enable-nvdec --enable-nvenc --enable-vaapi --enable-openal --enable-libgme --enable-libopenmpt --enable-libopencore-amrwb --enable-libmp3lame --enable-libtheora --enable-libvo-amrwbenc --enable-libgsm --enable-libopencore-amrnb --enable-libopus --enable-libspeex --enable-libvorbis --enable-librubberband
[2026-03-15 11:54:19] [VOICE_STDOUT]   libavutil      60. 27.100 / 60. 27.100
[2026-03-15 11:54:19] [VOICE_STDOUT]   libavcodec     62. 29.100 / 62. 29.100
[2026-03-15 11:54:19] [VOICE_STDOUT]   libavformat    62. 13.100 / 62. 13.100
[2026-03-15 11:54:19] [VOICE_STDOUT]   libavdevice    62.  4.100 / 62.  4.100
[2026-03-15 11:54:19] [VOICE_STDOUT]   libavfilter    11. 15.101 / 11. 15.101
[2026-03-15 11:54:19] [VOICE_STDOUT]   libswscale      9.  6.100 /  9.  6.100
[2026-03-15 11:54:19] [VOICE_STDOUT]   libswresample   6.  4.100 /  6.  4.100
[2026-03-15 11:54:19] [VOICE_STDOUT] [in#0/mp3 @ 000001c25c9869c0] Estimating duration from bitrate, this may be inaccurate
[2026-03-15 11:54:19] [VOICE_STDOUT] Input #0, mp3, from 'C:\Users\anden\AppData\Local\Temp\tmpwiryymmm.mp3':
[2026-03-15 11:54:19] [VOICE_STDOUT]   Duration: 00:00:02.57, start: 0.000000, bitrate: 48 kb/s
[2026-03-15 11:54:19] [VOICE_STDOUT]   Stream #0:0: Audio: mp3 (mp3float), 24000 Hz, mono, fltp, 48 kb/s
[2026-03-15 11:54:19] [VOICE_STDOUT] [Parsed_acrusher_2 @ 000001c25c99df40] [Eval @ 0000000d011fce50] Undefined constant or missing '(' in 't*1.7)'
[2026-03-15 11:54:19] [VOICE_STDOUT] [Parsed_acrusher_2 @ 000001c25c99df40] Unable to parse "mix" option value "0.55+0.45*sin(2*PI*t*1.7)"
[2026-03-15 11:54:19] [VOICE_STDOUT] [fc#-1 @ 000001c25c99a880] Error applying option 'mix' to filter 'acrusher': Invalid argument
[2026-03-15 11:54:19] [VOICE_STDOUT] Error opening output file C:\Users\anden\AppData\Local\Temp\tmpc6i7stoj.wav.
[2026-03-15 11:54:19] [VOICE_STDOUT] Error opening output files: Invalid argument
[2026-03-15 11:54:19] [VOICE_STDERR] [mp3 @ 000002D6E9617D80] Estimating duration from bitrate, this may be inaccurate
[2026-03-15 11:54:19] [VOICE_STDERR] Input #0, mp3, from 'C:/Users/anden/AppData/Local/Temp/tmpwiryymmm.mp3':
[2026-03-15 11:54:19] [VOICE_STDERR]   Duration: 00:00:02.57, start: 0.000000, bitrate: 48 kb/s
[2026-03-15 11:54:19] [VOICE_STDERR]   Stream #0:0: Audio: mp3 (mp3float), 24000 Hz, mono, fltp, 48 kb/s
[2026-03-15 11:54:19] [INFO] Voice line completed: Restart failed.
[2026-03-15 11:54:19] [INFO] Failure voice step 3/3 success=True line=Restart failed.
[2026-03-15 11:54:20] [INFO] Diagnostics process launched.
